<svg xmlns="http://www.w3.org/2000/svg" width="27.079" height="41.417" viewBox="0 0 27.079 41.417"><defs><style>.a{fill:#3a3a3a;}</style></defs><g transform="translate(18.352) rotate(76)"><g transform="translate(0 0)"><path class="a" d="M36.068,18.326a16.769,16.769,0,0,0-.708-4.883,18.684,18.684,0,0,0-2.071-4.525,19.728,19.728,0,0,0-3.177-3.847A19.037,19.037,0,0,0,26.03,2.135,18.358,18.358,0,0,0,21.049.329,17.987,17.987,0,0,0,15.774.1a18.7,18.7,0,0,0-4.81,1.147A19.637,19.637,0,0,0,6.59,3.579a19.014,19.014,0,0,0-3.6,3.328A16.481,16.481,0,0,0,.5,10.928c-.176.406-.34.818-.486,1.235-.074.211.112.493.248.626a1.6,1.6,0,0,0,.811.395,1.571,1.571,0,0,0,.9-.066.8.8,0,0,0,.463-.493q.148-.423.32-.838l-.084.2A16.492,16.492,0,0,1,5.14,7.895c.288-.352.592-.69.9-1.02l-.158.165A18.6,18.6,0,0,1,10.2,3.721l-.22.128a18.742,18.742,0,0,1,2.1-1.01q.536-.216,1.085-.395c.18-.06.359-.116.54-.171l.135-.039c.185-.055-.274.076-.088.025.107-.029.212-.058.319-.086a17.582,17.582,0,0,1,2.26-.428c.172-.02.342-.038.514-.053.046,0,.094-.008.14-.012l-.211.016.094-.007c.109-.007.219-.014.328-.019q.586-.03,1.174-.017.564.013,1.126.066l.046,0c.125.012.063.006-.186-.02l.141.016c.094.011.187.023.28.036.2.027.406.058.609.094q.564.1,1.12.241c.093.023.184.047.277.072l.137.038L21.7,2.128l.092.027q.3.089.592.187.54.181,1.066.4.263.109.522.229c.086.039.173.08.257.121.043.02.086.041.128.062-.385-.185-.147-.073-.061-.03a17.484,17.484,0,0,1,2,1.193c.17.117.337.237.5.36.08.059.406.316.083.06l.261.206q.521.418,1.01.875a19.031,19.031,0,0,1,1.788,1.921l-.158-.2a18.47,18.47,0,0,1,2.732,4.622l-.086-.211a16.485,16.485,0,0,1,1.22,5.928v-.027a.774.774,0,0,0,.248.626,1.6,1.6,0,0,0,.812.395,1.572,1.572,0,0,0,.9-.066c.184-.087.463-.254.462-.493Z"/><path class="a" d="M5.989.837Q5.48,3.909,4.973,6.983L4.685,8.725,6.97,8.071,3.321,3.459,2.291,2.151c-.124-.157-.472-.182-.642-.183a2.321,2.321,0,0,0-.929.2c-.315.147-.957.52-.628.935L3.741,7.72,4.773,9.027l.159.1a.894.894,0,0,0,.35.072,2.052,2.052,0,0,0,.754-.084,2.614,2.614,0,0,0,.576-.249c.154-.091.414-.3.448-.493L8.076,2.227q.143-.872.288-1.742c.085-.513-.705-.516-1.028-.462a2.315,2.315,0,0,0-.9.318c-.172.114-.411.275-.448.493Z" transform="translate(29.284 10.976)"/></g></g></svg>