<svg xmlns="http://www.w3.org/2000/svg" xmlns:xlink="http://www.w3.org/1999/xlink" viewBox="0 0 10.9 10.9"><defs><style>.cls-1{fill:none;}.cls-2{fill:#6b442a;}.cls-3{isolation:isolate;}.cls-4{fill:url(#linear-gradient);}.cls-5{mix-blend-mode:multiply;fill:url(#New_Pattern_Swatch_3);}</style><linearGradient id="linear-gradient" x1="5.45" y1="10.01" x2="5.45" y2="0.11" gradientUnits="userSpaceOnUse"><stop offset="0" stop-color="#f57000"/><stop offset="1" stop-color="#f53d00"/></linearGradient><pattern id="New_Pattern_Swatch_3" data-name="New Pattern Swatch 3" width="5" height="5" patternUnits="userSpaceOnUse" viewBox="0 0 5 5"><rect class="cls-1" width="5" height="5"/><rect class="cls-2" width="5" height="5"/></pattern></defs><g class="cls-3"><g id="Laag_2" data-name="Laag 2"><g id="Layer_1" data-name="Layer 1"><path class="cls-4" d="M10.9,5.45A5.45,5.45,0,1,1,5.45,0,5.45,5.45,0,0,1,10.9,5.45Z"/><path class="cls-5" d="M5.45,8.84A2.94,2.94,0,0,1,6.7,9.1c.14.06.33,0,.3-.1A1.6,1.6,0,0,0,3.9,9c0,.1.17.16.3.1A2.94,2.94,0,0,1,5.45,8.84Z"/><path class="cls-5" d="M4.41,6C4.41,6.54,4.07,7,3.65,7S2.89,6.54,2.89,6s.34-1.06.76-1.06S4.41,5.36,4.41,6Z"/><path class="cls-5" d="M3.79,3.78A1.6,1.6,0,0,1,4.6,5.1a.1.1,0,0,1-.18,0,2.4,2.4,0,0,0-.87-1A2.25,2.25,0,0,0,2.9,3.9.23.23,0,1,1,3,3.45,2.22,2.22,0,0,1,3.79,3.78Z"/><path class="cls-5" d="M6.58,6c0,.59.34,1.07.76,1.07S8.1,6.54,8.1,6s-.34-1.06-.76-1.06S6.58,5.36,6.58,6Z"/><path class="cls-5" d="M7.2,3.78A1.56,1.56,0,0,0,6.4,5.1c0,.09.13.1.17,0a2.48,2.48,0,0,1,.87-1A2.19,2.19,0,0,1,8.1,3.9.23.23,0,1,0,8,3.45,2.19,2.19,0,0,0,7.2,3.78Z"/></g></g></g></svg>