<svg xmlns="http://www.w3.org/2000/svg" xmlns:xlink="http://www.w3.org/1999/xlink" viewBox="0 0 10.9 10.9"><defs><style>.cls-1{fill:none;}.cls-2{fill:#6b442a;}.cls-3{isolation:isolate;}.cls-4{fill:url(#New_Gradient_Swatch_5);}.cls-5{mix-blend-mode:multiply;fill:url(#New_Pattern_Swatch_3);}.cls-6{fill:url(#_ÂÁ_Ï_ÌÌ_È_ËÂÌÚ_28);}.cls-7{fill:url(#_ÂÁ_Ï_ÌÌ_È_ËÂÌÚ_4);}.cls-8{fill:url(#_ÂÁ_Ï_ÌÌ_È_ËÂÌÚ_281);}.cls-9{fill:url(#_ÂÁ_Ï_ÌÌ_È_ËÂÌÚ_28-2);}.cls-10{fill:url(#_ÂÁ_Ï_ÌÌ_È_ËÂÌÚ_4-2);}.cls-11{fill:url(#_ÂÁ_Ï_ÌÌ_È_ËÂÌÚ_281-2);}</style><linearGradient id="New_Gradient_Swatch_5" x1="5.45" y1="-0.23" x2="5.45" y2="11.62" gradientUnits="userSpaceOnUse"><stop offset="0" stop-color="#fcf479"/><stop offset="0.16" stop-color="#fcf274"/><stop offset="0.35" stop-color="#fcea66"/><stop offset="0.56" stop-color="#fcdf4e"/><stop offset="0.78" stop-color="#fbce2d"/><stop offset="1" stop-color="#fbb903"/></linearGradient><pattern id="New_Pattern_Swatch_3" data-name="New Pattern Swatch 3" width="5" height="5" patternTransform="translate(6.54 -3.48)" patternUnits="userSpaceOnUse" viewBox="0 0 5 5"><rect class="cls-1" width="5" height="5"/><rect class="cls-2" width="5" height="5"/></pattern><linearGradient id="_ÂÁ_Ï_ÌÌ_È_ËÂÌÚ_28" x1="7.64" y1="5.45" x2="7.64" y2="1.66" gradientUnits="userSpaceOnUse"><stop offset="0.25" stop-color="#d97818"/><stop offset="0.36" stop-color="#dc811d"/><stop offset="0.54" stop-color="#e3992c"/><stop offset="0.77" stop-color="#f0c143"/><stop offset="1" stop-color="#feef5e"/></linearGradient><linearGradient id="_ÂÁ_Ï_ÌÌ_È_ËÂÌÚ_4" x1="7.59" y1="1.7" x2="7.59" y2="5.18" gradientUnits="userSpaceOnUse"><stop offset="0.25" stop-color="#fffbd1"/><stop offset="0.36" stop-color="#fffac8"/><stop offset="0.55" stop-color="#fff8b0"/><stop offset="0.78" stop-color="#fff488"/><stop offset="1" stop-color="#fff05e"/></linearGradient><linearGradient id="_ÂÁ_Ï_ÌÌ_È_ËÂÌÚ_281" x1="7.17" y1="2.27" x2="7.17" y2="4.62" gradientUnits="userSpaceOnUse"><stop offset="0.25" stop-color="#fff"/><stop offset="0.36" stop-color="#fffff6"/><stop offset="0.54" stop-color="#ffffde"/><stop offset="0.77" stop-color="#ffffb6"/><stop offset="1" stop-color="#ffff86"/></linearGradient><linearGradient id="_ÂÁ_Ï_ÌÌ_È_ËÂÌÚ_28-2" x1="3.27" y1="5.45" x2="3.27" y2="1.66" xlink:href="#_ÂÁ_Ï_ÌÌ_È_ËÂÌÚ_28"/><linearGradient id="_ÂÁ_Ï_ÌÌ_È_ËÂÌÚ_4-2" x1="3.31" y1="1.7" x2="3.31" y2="5.18" xlink:href="#_ÂÁ_Ï_ÌÌ_È_ËÂÌÚ_4"/><linearGradient id="_ÂÁ_Ï_ÌÌ_È_ËÂÌÚ_281-2" x1="3.7" y1="2.37" x2="3.7" y2="5.09" xlink:href="#_ÂÁ_Ï_ÌÌ_È_ËÂÌÚ_281"/></defs><g class="cls-3"><g id="Laag_2" data-name="Laag 2"><g id="Layer_1" data-name="Layer 1"><path class="cls-4" d="M10.9,5.45A5.45,5.45,0,1,1,5.45,0,5.45,5.45,0,0,1,10.9,5.45Z"/><path class="cls-5" d="M8.05,6.49a9.13,9.13,0,0,1-2.54.34H5.39a9.13,9.13,0,0,1-2.54-.34c-.46-.1-.35.34-.29.57A3.11,3.11,0,0,0,5.45,9h0A3.11,3.11,0,0,0,8.34,7.06C8.4,6.83,8.51,6.39,8.05,6.49Z"/><g id="Stars"><g id="Star"><path class="cls-6" d="M7.64,1.78a.27.27,0,0,1,.28-.11.27.27,0,0,1,.22.21l.2,1,1,.28a.27.27,0,0,1,.2.23.29.29,0,0,1-.14.28l-.87.5,0,1a.29.29,0,0,1-.16.26.3.3,0,0,1-.3,0L7.32,4.7,6.37,5A.28.28,0,0,1,6.07,5,.3.3,0,0,1,6,4.67l.42-.92L5.82,3a.28.28,0,0,1,.25-.44l1,.1Z"/><path class="cls-7" d="M7.64,1.78a.18.18,0,0,1,.18-.08A.17.17,0,0,1,8,1.84l.21,1,1.05.31a.13.13,0,0,1,.1.12.12.12,0,0,1-.07.13l-1,.55L8.33,5a.13.13,0,0,1-.08.13.14.14,0,0,1-.16,0L7.28,4.4l-1,.37a.14.14,0,0,1-.15,0,.12.12,0,0,1,0-.15l.45-1-.62-.81a.17.17,0,0,1,0-.19.17.17,0,0,1,.17-.08l1,.1Z"/><path class="cls-8" d="M6.88,2.59l-.35,1-.62-.81a.17.17,0,0,1,0-.19.17.17,0,0,1,.17-.08Zm1.28.24L8,2.27,6.67,4.62l.61-.22,1.2-1.48Z"/></g><g id="Star-2" data-name="Star"><path class="cls-9" d="M2.56,2.87l-1,.28a.28.28,0,0,0-.2.23.29.29,0,0,0,.14.28l.88.5,0,1a.27.27,0,0,0,.16.26.3.3,0,0,0,.3,0l.75-.68,1,.34A.26.26,0,0,0,4.83,5a.26.26,0,0,0,0-.3l-.41-.92L5.08,3a.28.28,0,0,0,0-.3.26.26,0,0,0-.27-.14l-1,.1-.57-.83A.27.27,0,0,0,3,1.67a.25.25,0,0,0-.21.21Z"/><path class="cls-10" d="M2.74,2.83l-1.05.31a.15.15,0,0,0-.1.12.12.12,0,0,0,.07.13l1,.55L2.58,5a.13.13,0,0,0,.08.13.12.12,0,0,0,.15,0l.81-.74,1,.37a.14.14,0,0,0,.15,0,.14.14,0,0,0,0-.15l-.45-1L5,2.78a.17.17,0,0,0,0-.19.16.16,0,0,0-.17-.08l-1,.1-.57-.83A.17.17,0,0,0,3,1.84Z"/><path class="cls-11" d="M3.83,2.61,2.59,5.09a.13.13,0,0,1,0-.06l0-1.09-.25-.15L3.67,2.37ZM5,2.59a.16.16,0,0,0-.17-.08l-.43,0L3.62,4.4l1,.37a.14.14,0,0,0,.15,0,.14.14,0,0,0,0-.15l-.45-1L5,2.78A.17.17,0,0,0,5,2.59Z"/></g></g></g></g></g></svg>