<svg xmlns="http://www.w3.org/2000/svg" xmlns:xlink="http://www.w3.org/1999/xlink" viewBox="0 0 10.9 10.9"><defs><style>.cls-1{fill:none;}.cls-2{fill:#6b442a;}.cls-3{isolation:isolate;}.cls-4{fill:url(#New_Gradient_Swatch_5);}.cls-5{mix-blend-mode:multiply;fill:url(#New_Pattern_Swatch_3);}</style><linearGradient id="New_Gradient_Swatch_5" x1="5.45" y1="-0.23" x2="5.45" y2="11.62" gradientUnits="userSpaceOnUse"><stop offset="0" stop-color="#fcf479"/><stop offset="0.16" stop-color="#fcf274"/><stop offset="0.35" stop-color="#fcea66"/><stop offset="0.56" stop-color="#fcdf4e"/><stop offset="0.78" stop-color="#fbce2d"/><stop offset="1" stop-color="#fbb903"/></linearGradient><pattern id="New_Pattern_Swatch_3" data-name="New Pattern Swatch 3" width="5" height="5" patternUnits="userSpaceOnUse" viewBox="0 0 5 5"><rect class="cls-1" width="5" height="5"/><rect class="cls-2" width="5" height="5"/></pattern></defs><g class="cls-3"><g id="Laag_2" data-name="Laag 2"><g id="Layer_1" data-name="Layer 1"><path class="cls-4" d="M10.9,5.45A5.45,5.45,0,1,1,5.45,0,5.45,5.45,0,0,1,10.9,5.45Z"/><path class="cls-5" d="M6.44,9.35h-2A.47.47,0,0,1,4,8.89H4a.46.46,0,0,1,.47-.46h2a.46.46,0,0,1,.46.46h0A.47.47,0,0,1,6.44,9.35Z"/><path class="cls-5" d="M3.28,6.49A3.49,3.49,0,0,1,2,6.24c-.13-.06-.24.1-.16.22a1.84,1.84,0,0,0,1.48.78,1.82,1.82,0,0,0,1.48-.78.14.14,0,0,0-.16-.22A3.49,3.49,0,0,1,3.28,6.49Z"/><path class="cls-5" d="M2.36,5a1.92,1.92,0,0,0,1.35-1.3.1.1,0,0,0-.18-.09,2.81,2.81,0,0,1-1.29.83,2.17,2.17,0,0,1-.79.08.29.29,0,0,0-.06.58A2.18,2.18,0,0,0,2.36,5Z"/><path class="cls-5" d="M7.62,6.49a3.49,3.49,0,0,0,1.32-.25.14.14,0,0,1,.16.22,1.81,1.81,0,0,1-1.48.78,1.84,1.84,0,0,1-1.48-.78c-.08-.12,0-.28.16-.22A3.49,3.49,0,0,0,7.62,6.49Z"/><path class="cls-5" d="M8.54,5A1.92,1.92,0,0,1,7.2,3.72a.1.1,0,0,1,.18-.09,2.72,2.72,0,0,0,1.28.83,2.21,2.21,0,0,0,.8.08.29.29,0,0,1,0,.58A2.19,2.19,0,0,1,8.54,5Z"/></g></g></g></svg>