<svg xmlns="http://www.w3.org/2000/svg" xmlns:xlink="http://www.w3.org/1999/xlink" viewBox="0 0 10.9 10.9"><defs><style>.cls-1{fill:none;}.cls-2{fill:#6b442a;}.cls-3{isolation:isolate;}.cls-4{fill:url(#New_Gradient_Swatch_5);}.cls-5,.cls-6{mix-blend-mode:multiply;}.cls-5{fill:url(#New_Pattern_Swatch_3);}.cls-6{fill:url(#New_Pattern_Swatch_3-5);}</style><linearGradient id="New_Gradient_Swatch_5" x1="5.45" y1="-0.23" x2="5.45" y2="11.62" gradientUnits="userSpaceOnUse"><stop offset="0" stop-color="#fcf479"/><stop offset="0.16" stop-color="#fcf274"/><stop offset="0.35" stop-color="#fcea66"/><stop offset="0.56" stop-color="#fcdf4e"/><stop offset="0.78" stop-color="#fbce2d"/><stop offset="1" stop-color="#fbb903"/></linearGradient><pattern id="New_Pattern_Swatch_3" data-name="New Pattern Swatch 3" width="5" height="5" patternTransform="translate(6.4 -5.14)" patternUnits="userSpaceOnUse" viewBox="0 0 5 5"><rect class="cls-1" width="5" height="5"/><rect class="cls-2" width="5" height="5"/></pattern><pattern id="New_Pattern_Swatch_3-5" data-name="New Pattern Swatch 3" width="5" height="5" patternTransform="translate(-3.45 -1.34)" patternUnits="userSpaceOnUse" viewBox="0 0 5 5"><rect class="cls-1" width="5" height="5"/><rect class="cls-2" width="5" height="5"/></pattern></defs><g class="cls-3"><g id="Laag_2" data-name="Laag 2"><g id="Layer_1" data-name="Layer 1"><path class="cls-4" d="M10.9,5.45A5.45,5.45,0,1,1,5.45,0,5.45,5.45,0,0,1,10.9,5.45Z"/><path class="cls-5" d="M4.31,4.61c0,.59-.34,1.07-.76,1.07s-.77-.48-.77-1.07.35-1.07.77-1.07S4.31,4,4.31,4.61Z"/><path class="cls-5" d="M6.48,4.61c0,.59.34,1.07.76,1.07S8,5.2,8,4.61s-.34-1.07-.76-1.07S6.48,4,6.48,4.61Z"/><path class="cls-6" d="M6.43,8.24h-2A.46.46,0,0,1,4,7.78H4a.47.47,0,0,1,.46-.46h2a.46.46,0,0,1,.46.46h0A.45.45,0,0,1,6.43,8.24Z"/></g></g></g></svg>