<svg xmlns="http://www.w3.org/2000/svg" xmlns:xlink="http://www.w3.org/1999/xlink" viewBox="0 0 10.9 10.9"><defs><style>.cls-1{fill:none;}.cls-2{fill:#6b442a;}.cls-3{isolation:isolate;}.cls-4{fill:url(#New_Gradient_Swatch_5);}.cls-5{mix-blend-mode:multiply;fill:url(#New_Pattern_Swatch_3);}</style><linearGradient id="New_Gradient_Swatch_5" x1="5.45" y1="-0.23" x2="5.45" y2="11.62" gradientUnits="userSpaceOnUse"><stop offset="0" stop-color="#fcf479"/><stop offset="0.16" stop-color="#fcf274"/><stop offset="0.35" stop-color="#fcea66"/><stop offset="0.56" stop-color="#fcdf4e"/><stop offset="0.78" stop-color="#fbce2d"/><stop offset="1" stop-color="#fbb903"/></linearGradient><pattern id="New_Pattern_Swatch_3" data-name="New Pattern Swatch 3" width="5" height="5" patternUnits="userSpaceOnUse" viewBox="0 0 5 5"><rect class="cls-1" width="5" height="5"/><rect class="cls-2" width="5" height="5"/></pattern></defs><g class="cls-3"><g id="Laag_2" data-name="Laag 2"><g id="Layer_1" data-name="Layer 1"><path class="cls-4" d="M10.9,5.45A5.45,5.45,0,1,1,5.45,0,5.45,5.45,0,0,1,10.9,5.45Z"/><path class="cls-5" d="M5.46,7.77a4.26,4.26,0,0,1-1.57-.29c-.16-.07-.4,0-.37.11A2,2,0,0,0,5.46,8.93,2,2,0,0,0,7.4,7.59c0-.11-.21-.18-.37-.11A4.26,4.26,0,0,1,5.46,7.77Z"/><path class="cls-5" d="M2.83,3A1.93,1.93,0,0,0,1.64,4.45a.1.1,0,0,0,.19.06A2.82,2.82,0,0,1,3,3.54a2.24,2.24,0,0,1,.78-.17.29.29,0,0,0,0-.58A2.21,2.21,0,0,0,2.83,3Z"/><path class="cls-5" d="M3.4,5a3.4,3.4,0,0,1-1.31-.25A.15.15,0,0,0,1.92,5a1.81,1.81,0,0,0,1.48.78A1.78,1.78,0,0,0,4.88,5a.14.14,0,0,0-.16-.22A3.49,3.49,0,0,1,3.4,5Z"/><path class="cls-5" d="M8.08,3A1.93,1.93,0,0,1,9.26,4.45a.1.1,0,0,1-.19.06,2.7,2.7,0,0,0-1.18-1,2.19,2.19,0,0,0-.78-.17.29.29,0,0,1,0-.58A2.25,2.25,0,0,1,8.08,3Z"/><path class="cls-5" d="M7.5,5a3.49,3.49,0,0,0,1.32-.25A.14.14,0,0,1,9,5a1.81,1.81,0,0,1-1.48.78A1.78,1.78,0,0,1,6,5a.14.14,0,0,1,.16-.22A3.49,3.49,0,0,0,7.5,5Z"/></g></g></g></svg>