<svg xmlns="http://www.w3.org/2000/svg" xmlns:xlink="http://www.w3.org/1999/xlink" viewBox="0 0 10.9 10.9"><defs><style>.cls-1{fill:none;}.cls-2{fill:#6b442a;}.cls-3{isolation:isolate;}.cls-4{fill:url(#New_Gradient_Swatch_5);}.cls-5{mix-blend-mode:multiply;fill:url(#New_Pattern_Swatch_3);}</style><linearGradient id="New_Gradient_Swatch_5" x1="5.45" y1="-0.23" x2="5.45" y2="11.62" gradientUnits="userSpaceOnUse"><stop offset="0" stop-color="#fcf479"/><stop offset="0.16" stop-color="#fcf274"/><stop offset="0.35" stop-color="#fcea66"/><stop offset="0.56" stop-color="#fcdf4e"/><stop offset="0.78" stop-color="#fbce2d"/><stop offset="1" stop-color="#fbb903"/></linearGradient><pattern id="New_Pattern_Swatch_3" data-name="New Pattern Swatch 3" width="5" height="5" patternUnits="userSpaceOnUse" viewBox="0 0 5 5"><rect class="cls-1" width="5" height="5"/><rect class="cls-2" width="5" height="5"/></pattern></defs><g class="cls-3"><g id="Laag_2" data-name="Laag 2"><g id="Layer_1" data-name="Layer 1"><path class="cls-4" d="M10.9,5.45A5.45,5.45,0,1,1,5.45,0,5.45,5.45,0,0,1,10.9,5.45Z"/><path class="cls-5" d="M3.76,4.77a1.05,1.05,0,0,1,.76.36c.08.08.2,0,.18-.14-.11-.93-.49-1.62-.94-1.62S2.93,4.06,2.82,5c0,.14.1.22.18.14A1.05,1.05,0,0,1,3.76,4.77Z"/><path class="cls-5" d="M7,4.77a1.05,1.05,0,0,1,.76.36c.08.08.2,0,.18-.14C7.85,4.06,7.47,3.37,7,3.37S6.19,4.06,6.08,5c0,.14.1.22.18.14A1.05,1.05,0,0,1,7,4.77Z"/><path class="cls-5" d="M5.39,7.53a6.62,6.62,0,0,1-2.24-.38c-.22-.07-.42.16-.28.33A3.28,3.28,0,0,0,5.39,8.62,3.28,3.28,0,0,0,7.91,7.48c.14-.17-.06-.4-.28-.33A6.57,6.57,0,0,1,5.39,7.53Z"/></g></g></g></svg>